<svg width="14" height="12" viewBox="0 0 14 12" fill="none" xmlns="http://www.w3.org/2000/svg">
<path d="M13.6945 1.08778C13.6121 0.940408 13.5013 0.810773 13.3687 0.706317C13.1026 0.496479 12.7642 0.400507 12.4276 0.439375C12.0909 0.478243 11.7834 0.648791 11.5721 0.913746L5.22923 8.91432C5.15953 9.00305 5.05777 9.06086 4.94587 9.07529C4.83396 9.08972 4.72087 9.05961 4.63094 8.99146L2.2138 7.1246C1.94373 6.91637 1.60201 6.82395 1.2638 6.86767C0.92559 6.9114 0.618602 7.08768 0.41037 7.35775C0.202137 7.62781 0.109717 7.96954 0.153439 8.30775C0.197162 8.64596 0.373447 8.95294 0.643513 9.16117L3.70694 11.5252C3.93983 11.7121 4.20926 11.8483 4.49792 11.925C4.78657 12.0016 5.08807 12.017 5.38303 11.9702C5.678 11.9234 5.95991 11.8154 6.21064 11.6531C6.46138 11.4908 6.67539 11.2779 6.83894 11.028L13.5795 2.51146C13.6846 2.37924 13.7624 2.22757 13.8087 2.06516C13.855 1.90276 13.8687 1.73281 13.8491 1.56508C13.8295 1.39736 13.777 1.23515 13.6945 1.08778Z" fill="white"/>
</svg>
